<svg width="39" height="37" viewBox="0 0 39 37" fill="none" xmlns="http://www.w3.org/2000/svg">
<rect x="0.753906" width="38" height="37" rx="9" fill="#FFA500" fill-opacity="0.65"/>
<path d="M28.8508 23.1102C28.3015 22.191 27.4849 19.5899 27.4849 16.1926C27.4849 14.1524 26.6507 12.1958 25.1658 10.7531C23.6809 9.31047 21.6669 8.5 19.5669 8.5C17.4669 8.5 15.4529 9.31047 13.968 10.7531C12.4831 12.1958 11.6489 14.1524 11.6489 16.1926C11.6489 19.5909 10.8313 22.191 10.282 23.1102C10.1417 23.344 10.0674 23.6095 10.0664 23.88C10.0655 24.1505 10.1379 24.4165 10.2766 24.6512C10.4152 24.8858 10.615 25.0808 10.856 25.2164C11.0969 25.3521 11.3704 25.4236 11.6489 25.4238H15.6881C15.8707 26.2923 16.3566 27.0728 17.0634 27.6333C17.7701 28.1938 18.6545 28.5 19.5669 28.5C20.4793 28.5 21.3637 28.1938 22.0705 27.6333C22.7772 27.0728 23.2631 26.2923 23.4457 25.4238H27.4849C27.7633 25.4234 28.0367 25.3518 28.2775 25.2161C28.5183 25.0804 28.718 24.8854 28.8565 24.6508C28.995 24.4161 29.0674 24.1502 29.0664 23.8798C29.0654 23.6093 28.991 23.3439 28.8508 23.1102ZM19.5669 26.9623C19.0758 26.9622 18.5968 26.8142 18.1959 26.5386C17.795 26.2631 17.4918 25.8736 17.3281 25.4238H21.8057C21.642 25.8736 21.3388 26.2631 20.9379 26.5386C20.537 26.8142 20.058 26.9622 19.5669 26.9623Z" fill="white"/>
</svg>
