<svg width="31" height="27" viewBox="0 0 31 27" fill="none" xmlns="http://www.w3.org/2000/svg">
<path d="M21.9515 0.539062C19.3861 0.539062 17.1092 1.56686 15.5667 3.33342C14.0241 1.56686 11.7473 0.539062 9.18186 0.539062C6.94745 0.541806 4.80534 1.44393 3.22538 3.04755C1.64542 4.65117 0.75661 6.82536 0.753906 9.09323C0.753906 18.4691 14.2654 25.9605 14.8401 26.2754C15.0634 26.3975 15.313 26.4614 15.5667 26.4614C15.8203 26.4614 16.07 26.3975 16.2933 26.2754C16.8679 25.9605 30.3794 18.4691 30.3794 9.09323C30.3767 6.82536 29.4879 4.65117 27.9079 3.04755C26.328 1.44393 24.1859 0.541806 21.9515 0.539062ZM21.2504 18.9901C19.472 20.5219 17.5708 21.9005 15.5667 23.1117C13.5625 21.9005 11.6614 20.5219 9.88291 18.9901C7.11573 16.5807 3.81861 12.9063 3.81861 9.09323C3.81861 7.64951 4.38367 6.26491 5.38947 5.24405C6.39527 4.22318 7.75944 3.64967 9.18186 3.64967C11.4548 3.64967 13.3575 4.86799 14.148 6.83026C14.263 7.11632 14.4594 7.36111 14.7121 7.53343C14.9647 7.70574 15.2623 7.79777 15.5667 7.79777C15.8711 7.79777 16.1686 7.70574 16.4213 7.53343C16.6739 7.36111 16.8703 7.11632 16.9854 6.83026C17.7758 4.86799 19.6785 3.64967 21.9515 3.64967C23.3739 3.64967 24.7381 4.22318 25.7439 5.24405C26.7497 6.26491 27.3147 7.64951 27.3147 9.09323C27.3147 12.9063 24.0176 16.5807 21.2504 18.9901Z" fill="black"/>
</svg>
