<svg width="66" height="57" viewBox="0 0 66 57" fill="none" xmlns="http://www.w3.org/2000/svg">
<path d="M62.353 11.1334C62.3694 11.0547 62.4 9.40969 62.4 9.40969C62.4 8.74906 61.8673 8.21312 61.2078 8.21312H55.9184C55.3464 8.21312 54.8881 8.62875 54.7755 9.17344L52.9347 2.95984C52.6558 2.33859 51.2886 1.33016 50.4683 1.10266C47.9636 0.408125 43.8741 0.0625 39.7878 0.0625C35.6994 0.0625 31.6098 0.408125 29.1041 1.10266C28.2848 1.33016 26.9166 2.33859 26.6388 2.95984L24.3419 10.7123H22.313V9.32C22.3135 8.72755 22.0788 8.15913 21.6604 7.73969C21.242 7.32026 20.6742 7.08415 20.0817 7.08328H10.18C9.88666 7.08357 9.59625 7.14167 9.32538 7.25425C9.05451 7.36684 8.80848 7.53171 8.60136 7.73944C8.39424 7.94717 8.2301 8.19368 8.1183 8.46488C8.00651 8.73608 7.94927 9.02666 7.94984 9.32V10.7123H5.76562C2.68562 10.7123 0.1875 13.2181 0.1875 16.3069V47.3584C0.1875 50.4461 2.68453 52.9519 5.76562 52.9519H27.0052C30.7603 55.5529 35.2209 56.9437 39.7889 56.9375C44.5347 56.9375 48.937 55.4642 52.5716 52.9519H60.2344C63.3144 52.9519 65.8125 50.4461 65.8125 47.3584V16.3069C65.8128 15.1989 65.4842 14.1158 64.8683 13.1948C64.2524 12.2738 63.377 11.5564 62.353 11.1334ZM39.7889 54.8802C28.4795 54.8802 19.28 45.6533 19.28 34.31C19.28 22.9667 28.4795 13.7387 39.7889 13.7387C51.0961 13.7387 60.2956 22.9667 60.2956 34.31C60.2956 45.6533 51.0961 54.8802 39.7889 54.8802Z" fill="#FFA500"/>
</svg>
