<svg width="53" height="57" viewBox="0 0 53 57" fill="none" xmlns="http://www.w3.org/2000/svg">
<path d="M11.9108 3.66667V24.0833L26.4941 16.7917L41.0775 24.0833V3.66667H49.8275C50.601 3.66667 51.3429 3.97396 51.8899 4.52094C52.4369 5.06792 52.7441 5.80978 52.7441 6.58333V53.25C52.7441 54.0235 52.4369 54.7654 51.8899 55.3124C51.3429 55.8594 50.601 56.1667 49.8275 56.1667H3.16081C2.38726 56.1667 1.64539 55.8594 1.09841 55.3124C0.551432 54.7654 0.244141 54.0235 0.244141 53.25V6.58333C0.244141 5.80978 0.551432 5.06792 1.09841 4.52094C1.64539 3.97396 2.38726 3.66667 3.16081 3.66667H11.9108ZM26.4941 15.3333L13.3691 0.75H39.6191L26.4941 15.3333ZM29.4108 24.7717L26.4941 23.3133L23.5775 24.7717V50.3333H29.4108V24.7717ZM35.2441 32.8333V38.6667H46.9108V32.8333H35.2441Z" fill="#FFA500"/>
</svg>
