<svg width="65" height="47" viewBox="0 0 65 47" fill="none" xmlns="http://www.w3.org/2000/svg">
<path d="M3.32832 0.667969C4.46309 7.39453 5.70996 14.3535 5.29023 21.3809C4.89375 28.0527 1.43613 34.0684 0.972656 39.7695H44.6816C45.4063 37.5273 46.8965 35.5449 48.5508 34.0137C49.125 33.4805 49.7129 32.9883 50.3008 32.5645C45.5293 31.2383 41.8652 29.2832 39.0215 26.918H30.8594V24.457H36.4648C35.3027 23.1582 34.3184 21.7773 33.498 20.3555H25.9375V17.8945H32.2266C31.5977 16.541 31.0781 15.1738 30.627 13.793H23.75V11.332H29.875C29.4922 9.95117 29.1504 8.57031 28.8359 7.23047H21.5625V4.76953H28.2617C27.9336 3.33398 27.5918 1.96133 27.209 0.667969H3.32832ZM15 17.8945C19.293 17.8945 22.793 21.3945 22.793 25.6875C22.793 29.9805 19.293 33.4805 15 33.4805C10.7111 33.4805 7.20703 29.9805 7.20703 25.6875C7.20703 21.3945 10.7111 17.8945 15 17.8945ZM15 20.3555C12.0469 20.3555 9.66797 22.7344 9.66797 25.6875C9.66797 28.6406 12.0469 31.0195 15 31.0195C17.9531 31.0195 20.332 28.6406 20.332 25.6875C20.332 22.7344 17.9531 20.3555 15 20.3555ZM54.3203 33.4805C53.6367 33.5215 51.7773 34.3691 50.2188 35.8184C49.0293 36.9121 47.9629 38.3203 47.3203 39.7695H58.75C60.3223 39.7695 62.25 38.9902 64.0273 38.0879C63.9727 37.5137 63.8906 37.0352 63.7266 36.7207C63.5078 36.2695 63.1934 35.9414 62.5371 35.5859C61.2246 34.875 58.5859 34.2871 54.3203 33.4805ZM64.082 40.7129C63.8086 40.8359 63.6172 40.9316 63.3027 41.0547C61.8945 41.6152 60.2539 42.2305 58.75 42.2305H0.917969V46.332H56.5625C59.5977 46.332 62.7559 45.1426 64.082 44.582V40.7129Z" fill="#FFA500"/>
</svg>
