<svg width="59" height="44" viewBox="0 0 59 44" fill="none" xmlns="http://www.w3.org/2000/svg">
<path d="M58.6255 13.9082C58.6189 13.8225 58.6111 13.7369 58.6022 13.6515C58.3435 9.9741 56.7026 6.53088 54.0092 4.01384C51.3158 1.4968 47.7695 0.0924943 44.083 0.083156H14.9163C11.1781 0.0662608 7.57794 1.49417 4.86755 4.06869C2.15715 6.64321 0.54614 10.1653 0.370925 13.8994C0.341758 14.1298 0.333008 14.369 0.333008 14.6373V33.6248C0.333008 36.3227 1.42092 38.9565 3.31384 40.8465C5.23537 42.7555 7.83275 43.8288 10.5413 43.8332C15.7913 43.8332 17.8447 40.9165 20.7497 35.0832C21.1755 34.2315 23.643 29.2498 29.4997 29.2498C35.3213 29.2498 37.8209 34.2286 38.2497 35.0832C41.178 40.9165 43.208 43.8332 48.458 43.8332C51.1559 43.8332 53.7897 42.7452 55.6797 40.8523C57.5886 38.9308 58.662 36.3334 58.6663 33.6248V14.6665C58.6663 14.3894 58.6547 14.1415 58.6255 13.9082ZM14.9163 20.5902C14.1395 20.6078 13.367 20.47 12.6442 20.1849C11.9214 19.8998 11.2628 19.4732 10.7071 18.9301C10.1514 18.3869 9.70983 17.7383 9.40829 17.0222C9.10675 16.306 8.95132 15.5369 8.95113 14.7599C8.95093 13.9828 9.10598 13.2136 9.40716 12.4973C9.70834 11.7811 10.1496 11.1322 10.705 10.5888C11.2604 10.0454 11.9188 9.61841 12.6415 9.33296C13.3642 9.0475 14.1366 8.90931 14.9134 8.92649C16.4376 8.96019 17.8879 9.58923 18.9541 10.6789C20.0202 11.7686 20.6174 13.2324 20.6178 14.7569C20.6182 16.2814 20.0217 17.7455 18.9561 18.8358C17.8905 19.926 16.4405 20.5558 14.9163 20.5902ZM44.083 6.00691C44.8566 6.00691 45.5984 6.3142 46.1454 6.86118C46.6924 7.40816 46.9997 8.15002 46.9997 8.92357C46.9997 9.69712 46.6924 10.439 46.1454 10.986C45.5984 11.5329 44.8566 11.8402 44.083 11.8402C43.3095 11.8402 42.5676 11.5329 42.0206 10.986C41.4736 10.439 41.1663 9.69712 41.1663 8.92357C41.1663 8.15002 41.4736 7.40816 42.0206 6.86118C42.5676 6.3142 43.3095 6.00691 44.083 6.00691ZM38.2497 17.6736C37.4761 17.6736 36.7343 17.3663 36.1873 16.8193C35.6403 16.2723 35.333 15.5305 35.333 14.7569C35.333 13.9834 35.6403 13.2415 36.1873 12.6945C36.7343 12.1475 37.4761 11.8402 38.2497 11.8402C39.0232 11.8402 39.7651 12.1475 40.3121 12.6945C40.859 13.2415 41.1663 13.9834 41.1663 14.7569C41.1663 15.5305 40.859 16.2723 40.3121 16.8193C39.7651 17.3663 39.0232 17.6736 38.2497 17.6736ZM44.083 23.5069C43.3095 23.5069 42.5676 23.1996 42.0206 22.6526C41.4736 22.1057 41.1663 21.3638 41.1663 20.5902C41.1663 19.8167 41.4736 19.0748 42.0206 18.5278C42.5676 17.9809 43.3095 17.6736 44.083 17.6736C44.8566 17.6736 45.5984 17.9809 46.1454 18.5278C46.6924 19.0748 46.9997 19.8167 46.9997 20.5902C46.9997 21.3638 46.6924 22.1057 46.1454 22.6526C45.5984 23.1996 44.8566 23.5069 44.083 23.5069ZM49.9163 17.6736C49.1428 17.6736 48.4009 17.3663 47.8539 16.8193C47.307 16.2723 46.9997 15.5305 46.9997 14.7569C46.9997 13.9834 47.307 13.2415 47.8539 12.6945C48.4009 12.1475 49.1428 11.8402 49.9163 11.8402C50.6899 11.8402 51.4318 12.1475 51.9787 12.6945C52.5257 13.2415 52.833 13.9834 52.833 14.7569C52.833 15.5305 52.5257 16.2723 51.9787 16.8193C51.4318 17.3663 50.6899 17.6736 49.9163 17.6736Z" fill="#FFA500"/>
</svg>
