<svg width="60" height="59" viewBox="0 0 60 59" fill="none" xmlns="http://www.w3.org/2000/svg">
<path d="M1.82467 37.1713C3.57467 36.5296 5.38301 36.2088 7.30801 36.2088C11.2163 36.2088 14.6288 37.4338 17.5455 39.8838L8.38717 49.0421C5.34873 45.6192 3.10739 41.5649 1.82467 37.1713ZM40.383 23.0838C46.1288 27.3713 52.3413 28.4213 58.9913 26.2338C59.0788 26.8463 59.1663 27.9546 59.1663 29.5005C59.1663 32.5046 58.4372 35.8588 57.0663 39.563C55.6955 43.238 54.0038 46.213 52.0205 48.4588L33.558 30.0546L40.383 23.0838ZM20.5788 43.0338C23.6705 47.4963 24.3122 52.3671 22.4747 57.6755C18.333 56.4796 14.6288 54.613 11.5372 52.0463L20.5788 43.0338ZM30.5538 33.0588L48.958 51.5213C42.6288 57.063 35.1913 59.3963 26.733 58.4921C27.3455 56.5671 27.6663 54.4671 27.6663 52.1921C27.6663 50.3838 27.258 48.2546 26.4413 45.8338C25.6247 43.413 24.6622 41.4296 23.583 39.8838L30.5538 33.0588ZM20.6955 36.7921C18.0376 34.4151 14.7795 32.8113 11.2747 32.1546C7.71634 31.4838 4.30384 31.688 1.00801 32.7963C0.920508 32.1546 0.833008 31.0463 0.833008 29.5005C0.833008 26.4963 1.56217 23.1421 2.93301 19.438C4.30384 15.763 5.99551 12.788 7.97884 10.5421L27.4038 30.0546L20.6955 36.7921ZM40.383 17.0463C36.4747 12.2338 35.5705 6.9838 37.6705 1.32547C39.4788 1.79214 41.5497 2.66714 43.883 4.0088C46.1872 5.3213 48.083 6.6338 49.5413 7.88797L40.383 17.0463ZM58.1747 21.8588C56.4247 22.4713 54.6163 22.7921 52.6913 22.7921C49.5122 22.7921 46.4497 21.8588 43.533 19.9338L52.5455 11.038C55.1122 14.2463 56.9788 17.8338 58.1747 21.8588ZM30.5538 26.9046L11.0413 7.47964C17.3705 1.93797 24.808 -0.395365 33.2955 0.508802C32.6538 2.4338 32.333 4.5338 32.333 6.8088C32.333 8.9088 32.7997 11.2713 33.7622 13.9255C34.7247 16.5505 35.833 18.6505 37.2913 20.1963L30.5538 26.9046Z" fill="#FFA500"/>
</svg>
