<svg width="54" height="53" viewBox="0 0 54 53" fill="none" xmlns="http://www.w3.org/2000/svg">
<path d="M37.9375 47.2958C35.5167 47.2958 33.5625 44.8458 33.5625 41.8125C33.5625 38.8083 35.5167 36.3583 37.9375 36.3583C40.3584 36.3583 42.3125 38.8083 42.3125 41.8125C42.3125 44.8458 40.3584 47.2958 37.9375 47.2958ZM27 24.3125C23.3834 24.3125 20.4375 21.8625 20.4375 18.8583C20.4375 15.825 23.3834 13.375 27 13.375C30.6167 13.375 33.5625 15.825 33.5625 18.8583C33.5625 21.8625 30.6167 24.3125 27 24.3125ZM16.0625 47.2958C13.6417 47.2958 11.6875 44.8458 11.6875 41.8125C11.6875 38.8083 13.6417 36.3583 16.0625 36.3583C18.4834 36.3583 20.4375 38.8083 20.4375 41.8125C20.4375 44.8458 18.4834 47.2958 16.0625 47.2958ZM27 15.5625C28.1959 15.5625 29.1875 16.5542 29.1875 17.75C29.1875 18.9458 28.1959 19.9375 27 19.9375C25.8042 19.9375 24.8125 18.9458 24.8125 17.75C24.8125 16.5542 25.8042 15.5625 27 15.5625ZM46.6875 26.5C45.7542 26.5 44.85 26.7042 44.0334 27.0833C42.6334 25.3042 40.7375 23.7875 38.4625 22.6208C40.125 20.2875 41.1167 17.4583 41.1167 14.3958V14.2208C44.2959 13.55 46.6875 10.7208 46.6875 7.30833C46.6875 3.42917 43.5084 0.25 39.6292 0.25C37.6167 0.25 35.75 1.09583 34.525 2.4375C32.2752 1.00887 29.6651 0.250216 27 0.250216C24.3349 0.250216 21.7249 1.00887 19.475 2.4375C18.25 1.09583 16.3834 0.25 14.3709 0.25C10.4917 0.25 7.31254 3.42917 7.31254 7.30833C7.31254 10.6917 9.7042 13.5208 12.8542 14.2208V14.3958C12.8542 17.4583 13.875 20.3167 15.5084 22.6208C13.2625 23.7875 11.3667 25.3042 9.9667 27.0833C8.96998 26.6343 7.87652 26.4426 6.78649 26.5258C5.69647 26.6089 4.64473 26.9642 3.72762 27.5592C2.81051 28.1541 2.05736 28.9697 1.53715 29.9312C1.01694 30.8927 0.746303 31.9693 0.750038 33.0625C0.750038 36.7083 3.6667 39.625 7.31254 39.625H7.48754C7.37087 40.325 7.31254 41.0833 7.31254 41.8125C7.31254 47.85 11.2209 52.75 16.0625 52.75C19.0084 52.75 21.6042 50.9125 23.2084 48.1125C24.4334 48.2875 25.6875 48.375 27 48.375C28.3125 48.375 29.5667 48.2875 30.7917 48.1125C32.3959 50.9125 34.9917 52.75 37.9375 52.75C42.7792 52.75 46.6875 47.85 46.6875 41.8125C46.6875 41.0833 46.6292 40.325 46.5125 39.625H46.6875C50.3334 39.625 53.25 36.7083 53.25 33.0625C53.25 29.4167 50.3334 26.5 46.6875 26.5Z" fill="#FFA500"/>
</svg>
